PathFileType	4	(X/Y/Z)	OpenSim_Sub08_CSStiffKnee_Accel.trc
DataRate	CameraRate	NumFrames	NumMarkers	Units	OrigDataRate	OrigDataStartFrame	OrigNumFrames
100	100	27	8	m	100	1321	5282
Frame#	Time	torso_imu_offset_imu	pelvis_imu_offset_imu	tibia_r_imu_offset_imu	femur_r_imu_offset_imu	tibia_l_imu_offset_imu	femur_l_imu_offset_imu	toes_r_imu_offset_imu	toes_l_imu_offset_imu
				X1	Y1	Z1	X2	Y2	Z2	X3	Y3	Z3	X4	Y4	Z4	X5	Y5	Z5	X6	Y6	Z6	X7	Y7	Z7	X8		Y8	Z8	

1321	13.20000000	9.18624665	1.14875088	5.40179789	8.96879725	-1.68010820	2.98129126	10.36030917	2.03899180	1.53233023	9.24637855	-0.56508044	2.96671293	9.43218853	-2.30062850	-0.32016344	9.65530484	1.56463345	-0.82204854	5.58757413	-1.29724835	9.88928504	5.46928269	1.44893177	10.78422229
1322	13.21000000	9.13881605	1.09277098	5.50539966	9.08130376	-1.90661952	2.95667812	10.32290971	2.01745405	1.46340871	9.14363554	-0.48330621	2.97339426	9.40079490	-2.01064395	-0.58141850	9.59080764	1.63938457	-0.97933586	5.96191111	-1.28721572	9.92012641	5.78135546	1.79281042	10.53775195
1323	13.22000000	9.06842614	1.11507322	5.57709746	9.19719509	-1.94001736	2.96823888	10.29227700	1.96671501	1.33900057	9.05494756	-0.48464373	3.10771317	9.35689837	-2.18941847	-0.98767379	9.22235249	2.01707713	-1.26160940	6.07314991	-1.08344916	9.77189182	5.82635972	1.70614591	10.49236415
1324	13.23000000	9.11842339	1.21125865	5.64167987	9.31967787	-1.81406842	2.94593749	10.28976891	1.96307477	1.17055826	8.99858285	-0.47991998	3.24073232	9.47981361	-2.41211857	-0.83542433	9.37413978	2.26289880	-1.46667156	5.86600999	-0.97615801	9.47026468	5.91977179	1.50606994	10.42853121
1325	13.24000000	9.09218130	1.24445517	5.55302295	9.42685918	-1.57212184	2.93583777	10.37461660	1.87639602	1.05865126	8.98819217	-0.58800670	3.19333357	9.60695868	-2.85594127	-0.77098425	9.54930702	2.51222907	-1.68440087	5.75097562	-1.00499903	9.11252047	5.76528186	1.41618732	10.67631565
1326	13.25000000	8.99317566	1.18590692	5.44264570	9.53251841	-1.37244873	2.92046893	10.42079808	1.81546163	1.11915170	8.89783085	-0.89504695	3.04504028	9.84417381	-2.99284312	-0.63817093	9.36986563	3.05745718	-1.77521809	5.76700965	-0.68697598	8.85790532	5.62427440	1.34763991	10.76549620
1327	13.26000000	8.92237531	1.13028053	5.72607649	9.64372192	-1.30409525	2.85088202	10.26963622	1.79951444	1.26324782	8.80427929	-1.33702412	2.89767856	9.88613820	-2.13864650	-0.38681702	9.24473419	3.66939570	-1.58190415	5.70302653	-0.37063492	8.59142050	5.66191780	1.36274192	10.62526694
1328	13.27000000	8.87406471	1.15609322	5.71497683	9.65356330	-1.40762114	2.86638512	10.07470417	1.70277287	1.28928401	8.79329947	-1.71521395	2.75328498	9.89373537	-1.01620174	-0.35504175	8.90859198	3.78283612	-1.23263745	5.64207573	-0.57056109	8.32470682	5.71023790	1.46936214	10.48695231
1329	13.28000000	8.80343071	1.19678497	5.68820482	9.67532314	-1.53338118	2.90704861	9.99466059	1.46626722	1.25726103	8.84748483	-2.05314909	2.67359502	9.68571105	-0.25037780	-0.32498025	8.57498937	3.72488705	-1.01462455	6.04259229	-0.78894461	8.39080560	5.70793911	1.64785350	10.56120571
1330	13.29000000	8.79950384	1.13828976	5.93199575	9.63567238	-1.58278150	2.83317530	9.98896434	1.21084887	1.19807275	8.93557322	-2.47660070	2.61832381	9.39379954	-0.35908719	-0.43573163	8.63542965	3.63026044	-0.99493947	6.48182809	-0.83996185	8.57736440	5.30280092	1.46401498	10.80777372
1331	13.30000000	8.87247569	1.09119236	5.94101841	9.53417682	-1.57681680	2.71973644	9.94603341	1.06649055	1.14155309	8.99532906	-2.82272623	2.54488150	9.60016340	-0.90816381	-0.64633485	8.73370041	3.25942932	-1.05519444	6.62583795	-1.00370100	8.54639392	5.58089035	1.57432434	10.55839678
1332	13.31000000	8.93599389	1.08518192	5.92670548	9.36304746	-1.51469105	2.64191593	9.87096101	1.01304018	1.09205463	8.95524980	-3.17974412	2.54123280	9.89392336	-1.31199107	-0.80140408	8.82420873	2.86936491	-1.15496814	7.09676835	-1.39972216	8.68019341	5.81143692	1.79794315	10.46404253
1333	13.32000000	8.98826512	1.08738684	5.97382541	9.30261308	-1.26353925	2.59423570	9.73151166	0.90017522	1.17256688	8.88582349	-3.46209643	2.58391078	9.71849489	-1.43586353	-0.95093908	8.88623367	2.53901803	-1.33270025	7.73297303	-1.93006949	8.80515470	5.69717046	1.65873094	10.58448996
1334	13.33000000	9.01963636	1.15650848	6.04713450	9.30710171	-1.04213833	2.61112214	9.62110546	0.62103718	1.19467122	8.92756673	-3.61721666	2.66787421	9.33067344	-1.30731055	-1.01201510	9.03729882	2.41614797	-1.51525185	7.49078689	-2.34783263	8.37780404	5.36728973	1.71303646	10.75777000
1335	13.34000000	9.05145305	1.24499462	6.07934147	9.19687684	-0.89450604	2.58606549	9.57947063	0.35894244	1.09337438	8.94699971	-3.79295393	2.76001013	9.21476773	-1.49320090	-0.77692877	8.68619378	2.51472609	-1.72367973	6.52666252	-2.34401200	7.68389278	5.59390425	1.44432211	10.72075393
1336	13.35000000	9.02520294	1.27182128	6.10067601	9.24580595	-0.72155439	2.48700828	9.55717226	0.17250906	1.07790964	8.91823006	-3.85176188	2.84552389	9.49624515	-2.28570496	-0.37222295	8.75274094	2.58643104	-1.85258774	6.03967676	-2.08124011	7.34513773	6.09379566	1.01868324	10.55311453
1337	13.36000000	9.00338781	1.20015889	6.13668323	9.36070262	-0.77981216	2.38926727	9.57220196	-0.24223570	1.07916558	9.00773704	-3.91477892	2.91344379	10.05310366	-3.07824450	-0.04426268	9.39924958	2.37386139	-1.81066795	6.18518443	-2.26754442	7.31919769	6.36828823	0.88017595	10.38225307
1338	13.37000000	9.06701907	1.14126078	6.17956208	9.58105883	-0.92082048	2.30315026	9.48994589	-0.54810602	1.18565343	9.09410177	-4.08412767	2.92374806	9.99870259	-2.96224629	0.03124092	9.37878073	2.23828829	-1.78205747	6.45479716	-2.52024247	7.32632789	5.86958679	0.76587160	10.63030567
1339	13.38000000	9.12378379	1.16655722	6.19392758	9.75267593	-1.08349168	2.23432630	9.25802984	-0.54054010	1.28258272	8.96412338	-4.20405501	2.80900135	9.51784436	-2.43571872	-0.25712901	9.37146125	2.30976096	-1.77524417	6.40940481	-2.56773384	7.22738536	5.59893673	0.98423890	10.73205174
1340	13.39000000	9.09542140	1.16306332	6.21064896	9.94632783	-1.28045644	2.18397329	9.02787776	-0.43131496	1.30606582	8.74029433	-4.22866616	2.63541490	9.42220333	-1.90373258	-0.40043063	9.39814329	2.31064988	-1.82079846	6.12738186	-2.43435130	6.90919180	5.80237530	1.23938366	10.73619386
1341	13.40000000	9.07205613	1.15920073	6.23733319	10.07969676	-1.45222594	2.14726741	9.01882062	-0.26924042	1.25071199	8.58826942	-4.28251272	2.54100442	9.67199545	-1.72448158	-0.76783571	9.48871199	2.29193078	-1.88966998	5.94862439	-1.96704471	6.73815782	6.00544644	1.19372771	10.50326095
1342	13.41000000	9.14796746	1.21403711	6.28524679	10.07930202	-1.59836881	2.08642843	9.10642699	-0.10544436	1.23756510	8.46352435	-4.38487520	2.57545680	9.92369463	-2.19235024	-1.01140738	9.23016527	2.15187374	-1.85594423	6.05368372	-1.53463911	6.75464280	5.78751495	1.31153452	10.56539747
1343	13.42000000	9.24803615	1.23960356	6.30852253	10.10312041	-1.72625420	2.02371075	9.04833315	-0.05663190	1.31788774	8.39011555	-4.37655009	2.60867562	9.77871452	-2.54512734	-0.72237150	9.16414720	2.16823637	-1.80739697	6.30621086	-1.50539446	6.74781171	5.35173402	1.35671135	10.96638681
1344	13.43000000	9.32362533	1.20315590	6.36265747	10.07416359	-1.84631515	2.00335320	8.86812552	-0.05644031	1.35015844	8.35581321	-4.36320382	2.65402059	9.75538753	-2.38237865	-0.71929163	9.54701245	2.41282679	-1.74501250	6.45958884	-1.73172067	6.64597947	5.69565721	1.33398369	10.76771229
1345	13.44000000	9.34221953	1.19903621	6.41395921	10.07127484	-1.93643833	1.98198121	8.71565237	0.09459199	1.24949664	8.40624336	-4.36472487	2.72274390	9.97784887	-2.46375756	-0.61413050	9.44341226	2.48068136	-1.72246641	6.25598777	-1.69588611	6.39256643	5.92199903	1.24620799	10.63170041
1346	13.45000000	9.29691605	1.22069051	6.44193792	10.06566592	-1.93252867	1.91320973	8.72158135	0.28986746	1.08691550	8.48387797	-4.26548707	2.66366230	9.90267726	-2.52947475	-0.42750250	9.31977862	2.46816201	-1.78961999	5.84248395	-1.34790102	6.03306846	5.90156593	1.06653583	10.62803295
1347	13.46000000	9.28675539	1.23123551	6.44794998	10.08401609	-1.83219612	1.90002664	8.83357958	0.41758042	0.96085134	8.53965450	-4.27869348	2.58068876	9.80745235	-2.52545108	-0.68275461	9.42056800	2.45029461	-1.80029062	5.76321381	-1.11950693	5.72972449	4.82645213	1.33070157	11.47265979
